<svg xmlns="http://www.w3.org/2000/svg" viewBox="0 0 412.86 65.11"><defs><style>.cls-1,.cls-2{fill:#207152;}.cls-2{font-size:41.8px;font-family:Cabin-Regular, Cabin;}.cls-3{letter-spacing:-0.01em;}.cls-4{letter-spacing:-0.05em;}</style></defs><g id="Layer_2" data-name="Layer 2"><g id="Layer_1-2" data-name="Layer 1"><g id="NewGroup9-0"><path class="cls-1" d="M44,53.54A13.44,13.44,0,0,1,30.52,40.18V37c0-5.35,4.1-9.91,9.15-10.17a9.53,9.53,0,0,1,10,9.52v1.91a3.82,3.82,0,0,1-7.63,0V36.37a1.91,1.91,0,1,0-3.81,0v1.91a7.63,7.63,0,0,0,15.26,0V36.37A13.33,13.33,0,0,0,39.47,23c-7.25.38-12.77,6.81-12.77,14v3.16a16.94,16.94,0,0,0,2.93,9.54h-1A5.73,5.73,0,0,1,22.89,44V35.36c0-10.22,7.61-19,17.32-19.88a19.18,19.18,0,0,1,21.08,19v1.91A17.25,17.25,0,0,1,44,53.54Zm17.09,7.75H21A13.43,13.43,0,0,1,7.63,47.81V29.15a6,6,0,0,1,4.75-6,5.71,5.71,0,0,1,6.69,5.64V44a9.55,9.55,0,0,0,9.54,9.54h4a1.63,1.63,0,0,0,.45-.06A17.29,17.29,0,0,0,44,57.35,21.14,21.14,0,0,0,55.12,54.2a10,10,0,0,1,6,7.09ZM5.72,7.63A1.91,1.91,0,1,1,7.63,5.72,1.92,1.92,0,0,1,5.72,7.63ZM21,3.81a1.91,1.91,0,1,1-1.91,1.91A1.92,1.92,0,0,1,21,3.81ZM65.11,36.37V34.46a22.86,22.86,0,0,0-43.34-10.2,9.51,9.51,0,0,0-4.43-4.18l3.42-8.64H21A5.72,5.72,0,1,0,17.21,10l-3.63,9.19a3.38,3.38,0,0,0-.45,0L9.49,10A5.71,5.71,0,1,0,6,11.44l3.42,8.64a10.07,10.07,0,0,0-5.56,9.07V47.81A17.26,17.26,0,0,0,21,65.11H63.2a1.92,1.92,0,0,0,1.91-1.91A13.52,13.52,0,0,0,62.31,55a13.72,13.72,0,0,0-3.83-3.42,20.87,20.87,0,0,0,6.63-15.25Z"/><path class="cls-1" d="M13.35,26.83a1.91,1.91,0,1,1-1.91,1.91,1.91,1.91,0,0,1,1.91-1.91Z"/></g><text class="cls-2" transform="translate(73.4 47.03)"><tspan class="cls-3">C</tspan><tspan x="25.16" y="0">ORE WEB VI</tspan><tspan class="cls-4" x="248.33" y="0">T</tspan><tspan x="268.35" y="0">ALS</tspan></text></g></g></svg>